. 
  
http://www.torrentday.com/        :     The Hottest Private Tracker On The Net!!!
 
http://www.torrentday.com          :     Once & For all ;)


               www . TorrentDay . Com 

(((((((((((((= Enjoy No RAR releases =))))))))))))))))))))


...................................NFO:....................................

.[img]http://img208.imageshack.us/img208/1153/posterpb.jpg[/img]

[color=red][size=4][b]Due.Date.2010.DVDRiP.XViD.AC3.NiTR0[/b][/size][/color]

Source: R1 NTSC DVD9
Runtime: 95 min
Genre: Comedy
Audio: English 5.1
Subtitles: None
IMDB: http://www.imdb.com/title/tt1231583/

[color=red][size=3][b]General[/b][/size][/color]
Complete name                    : Due.Date.2010.DVDRiP.XViD.AC3.NiTR0.avi
Format                           : AVI
Format/Info                      : Audio Video Interleave
Format profile                   : OpenDML
Format settings                  : rec
File size                        : 1.37 GiB
Duration                         : 1h 35mn
Overall bit rate                 : 2 055 Kbps

[color=red][size=3][b]Video[/b][/size][/color]
Format                           : MPEG-4 Visual
Format profile                   : Advanced Simple@L5
Format settings, BVOP            : 2
Format settings, QPel            : No
Format settings, GMC             : No warppoints
Format settings, Matrix          : Default (H.263)
Muxing mode                      : Packed bitstream
Codec ID                         : XVID
Duration                         : 1h 35mn
Bit rate                         : 1 666 Kbps
Width                            : 720 pixels
Height                           : 304 pixels
Display aspect ratio             : 2.35:1
Frame rate                       : 23.976 fps
Scan type                        : Progressive
Stream size                      : 1.11 GiB (81%)

[color=red][size=3][b]Audio[/b][/size][/color]
Format                           : AC-3
Format/Info                      : Audio Coding 3
Mode extension                   : CM (complete main)
Duration                         : 1h 35mn
Bit rate mode                    : Constant
Bit rate                         : 384 Kbps
Channel(s)                       : 6 channels
Channel positions                : Front: L C R, Side: L R, LFE
Sampling rate                    : 48.0 KHz
Bit depth                        : 16 bits
Stream size                      : 262 MiB (19%)
Alignment                        : Aligned on interleaves
Interleave, duration             : 64 ms (1.53 video frames)
Interleave, preload duration     : 192 ms

[color=red][size=3][b]Plot:[/b][/size][/color]
High-strung father-to-be Peter Highman is forced to hitch a ride with aspiring actor Ethan Tremblay on a road trip in order to make it to his child's birth on time.

[color=red][size=3][b]Group Notes:[/b][/size][/color]
Special Thanks to HiTM4N

[color=red][size=3][b]Screens:[/b][/size][/color]
[img]http://img208.imageshack.us/img208/9682/42996440.png[/img]
[img]http://img208.imageshack.us/img208/6468/52749198.png[/img]
[img]http://img208.imageshack.us/img208/2790/21750173.png[/img]
[img]http://img208.imageshack.us/img208/8206/68516256.png[/img]